<svg xmlns="http://www.w3.org/2000/svg" xmlns:xlink="http://www.w3.org/1999/xlink" width="200" zoomAndPan="magnify" viewBox="0 0 150 74.999997" height="100" preserveAspectRatio="xMidYMid meet" version="1.0"><defs><g/></defs><g fill="#55e6a5" fill-opacity="1"><g transform="translate(21.939737, 68.980972)"><g><path d="M 2.234375 0 L 2.234375 -1.015625 L 4.375 -1.828125 C 6.550781 -2.710938 7.640625 -4.445312 7.640625 -7.03125 L 7.640625 -60.21875 C 7.640625 -62.9375 6.550781 -64.664062 4.375 -65.40625 L 2.234375 -66.234375 L 2.234375 -67.25 L 29.140625 -67.25 C 36.335938 -67.25 42.535156 -65.90625 47.734375 -63.21875 C 52.929688 -60.539062 56.9375 -56.703125 59.75 -51.703125 C 62.570312 -46.710938 63.984375 -40.71875 63.984375 -33.71875 C 63.984375 -26.59375 62.453125 -20.515625 59.390625 -15.484375 C 56.335938 -10.460938 52.078125 -6.625 46.609375 -3.96875 C 41.140625 -1.320312 34.707031 0 27.3125 0 Z M 22.921875 -2.03125 L 27.3125 -2.03125 C 32.195312 -2.03125 36.132812 -3 39.125 -4.9375 C 42.113281 -6.875 44.300781 -10.132812 45.6875 -14.71875 C 47.082031 -19.300781 47.78125 -25.601562 47.78125 -33.625 C 47.78125 -41.632812 47.082031 -47.929688 45.6875 -52.515625 C 44.300781 -57.109375 42.144531 -60.367188 39.21875 -62.296875 C 36.300781 -64.234375 32.46875 -65.203125 27.71875 -65.203125 L 22.921875 -65.203125 Z M 22.921875 -2.03125 "/></g></g></g><g fill="#55e6a5" fill-opacity="1"><g transform="translate(86.302246, 68.2573)"><g><path d="M 10.671875 0.140625 L 2.671875 -26.78125 C 2.460938 -27.46875 2.234375 -27.96875 1.984375 -28.28125 C 1.742188 -28.601562 1.320312 -28.898438 0.71875 -29.171875 L 0.1875 -29.40625 L 0.1875 -29.859375 L 12.171875 -29.859375 L 12.171875 -29.40625 L 11.21875 -29.046875 C 10.519531 -28.773438 10.050781 -28.441406 9.8125 -28.046875 C 9.570312 -27.648438 9.554688 -27.109375 9.765625 -26.421875 L 14.703125 -7.59375 L 20.03125 -23.390625 L 19 -26.59375 C 18.789062 -27.226562 18.59375 -27.710938 18.40625 -28.046875 C 18.226562 -28.378906 17.925781 -28.648438 17.5 -28.859375 L 16.515625 -29.40625 L 16.515625 -29.859375 L 27.859375 -29.859375 L 27.859375 -29.40625 L 26.46875 -28.859375 C 25.863281 -28.648438 25.519531 -28.34375 25.4375 -27.9375 C 25.363281 -27.53125 25.429688 -27.007812 25.640625 -26.375 L 31.390625 -7.140625 L 36.828125 -26.015625 C 37.035156 -26.734375 37.109375 -27.363281 37.046875 -27.90625 C 36.984375 -28.445312 36.609375 -28.835938 35.921875 -29.078125 L 34.96875 -29.40625 L 34.96875 -29.859375 L 41.25 -29.859375 L 41.25 -29.40625 L 40.078125 -28.953125 C 39.472656 -28.742188 39.050781 -28.410156 38.8125 -27.953125 C 38.570312 -27.503906 38.359375 -26.945312 38.171875 -26.28125 L 30.671875 0.140625 L 27.546875 0.140625 L 20.765625 -21.125 L 13.796875 0.140625 Z M 10.671875 0.140625 "/></g></g></g></svg>