<svg xmlns="http://www.w3.org/2000/svg" xmlns:xlink="http://www.w3.org/1999/xlink" width="200" zoomAndPan="magnify" viewBox="0 0 150 74.999997" height="100" preserveAspectRatio="xMidYMid meet" version="1.0"><defs><g/></defs><g fill="#ffffff" fill-opacity="1"><g transform="translate(2.378729, 43.734259)"><g><path d="M 0.84375 0 L 0.84375 -0.390625 L 1.65625 -0.6875 C 2.46875 -1.019531 2.875 -1.671875 2.875 -2.640625 L 2.875 -22.671875 C 2.875 -23.691406 2.46875 -24.34375 1.65625 -24.625 L 0.84375 -24.9375 L 0.84375 -25.3125 L 10.96875 -25.3125 C 13.675781 -25.3125 16.007812 -24.804688 17.96875 -23.796875 C 19.925781 -22.785156 21.4375 -21.335938 22.5 -19.453125 C 23.5625 -17.578125 24.09375 -15.328125 24.09375 -12.703125 C 24.09375 -10.015625 23.515625 -7.722656 22.359375 -5.828125 C 21.210938 -3.929688 19.609375 -2.484375 17.546875 -1.484375 C 15.492188 -0.492188 13.070312 0 10.28125 0 Z M 8.625 -0.765625 L 10.28125 -0.765625 C 12.125 -0.765625 13.609375 -1.128906 14.734375 -1.859375 C 15.859375 -2.585938 16.679688 -3.8125 17.203125 -5.53125 C 17.722656 -7.257812 17.984375 -9.632812 17.984375 -12.65625 C 17.984375 -15.675781 17.722656 -18.046875 17.203125 -19.765625 C 16.679688 -21.492188 15.867188 -22.722656 14.765625 -23.453125 C 13.671875 -24.179688 12.226562 -24.546875 10.4375 -24.546875 L 8.625 -24.546875 Z M 8.625 -0.765625 "/></g></g></g><g fill="#ffffff" fill-opacity="1"><g transform="translate(25.805712, 45.035575)"><g><path d="M 3.734375 -12.3125 C 3.273438 -12.3125 2.894531 -12.46875 2.59375 -12.78125 C 2.289062 -13.101562 2.140625 -13.5 2.140625 -13.96875 C 2.140625 -14.4375 2.296875 -14.835938 2.609375 -15.171875 C 2.921875 -15.503906 3.289062 -15.671875 3.71875 -15.671875 C 4.15625 -15.671875 4.519531 -15.503906 4.8125 -15.171875 C 5.113281 -14.847656 5.265625 -14.445312 5.265625 -13.96875 C 5.265625 -13.488281 5.125 -13.09375 4.84375 -12.78125 C 4.5625 -12.46875 4.191406 -12.3125 3.734375 -12.3125 Z M 0.84375 -1.328125 C 1.363281 -1.328125 1.695312 -1.472656 1.84375 -1.765625 C 1.988281 -2.054688 2.0625 -2.523438 2.0625 -3.171875 L 2.0625 -6.578125 C 2.0625 -7.222656 2.085938 -7.816406 2.140625 -8.359375 L 0.703125 -8.296875 L 0.703125 -9.859375 C 1.566406 -9.859375 2.265625 -9.921875 2.796875 -10.046875 C 3.328125 -10.171875 3.679688 -10.316406 3.859375 -10.484375 L 4.96875 -10.484375 L 4.96875 -3.3125 C 4.96875 -2.65625 4.941406 -2.050781 4.890625 -1.5 C 5.328125 -1.539062 5.769531 -1.5625 6.21875 -1.5625 L 6.21875 0 L 0.84375 0 Z M 0.84375 -1.328125 "/></g></g></g><g fill="#ffffff" fill-opacity="1"><g transform="translate(32.52516, 45.035575)"><g><path d="M 5.265625 5.5625 C 3.609375 5.5625 2.410156 5.304688 1.671875 4.796875 C 0.941406 4.296875 0.578125 3.65625 0.578125 2.875 C 0.578125 2.394531 0.726562 1.945312 1.03125 1.53125 C 1.34375 1.113281 1.84375 0.773438 2.53125 0.515625 C 1.988281 0.359375 1.597656 0.125 1.359375 -0.1875 C 1.117188 -0.5 1 -0.867188 1 -1.296875 C 1 -1.703125 1.160156 -2.117188 1.484375 -2.546875 C 1.804688 -2.972656 2.3125 -3.289062 3 -3.5 L 3 -3.515625 C 2.382812 -3.765625 1.894531 -4.148438 1.53125 -4.671875 C 1.164062 -5.203125 0.984375 -5.828125 0.984375 -6.546875 C 0.984375 -7.316406 1.195312 -8.007812 1.625 -8.625 C 2.0625 -9.238281 2.628906 -9.722656 3.328125 -10.078125 C 4.035156 -10.429688 4.78125 -10.609375 5.5625 -10.609375 C 5.976562 -10.609375 6.410156 -10.554688 6.859375 -10.453125 C 7.316406 -10.347656 7.703125 -10.1875 8.015625 -9.96875 C 8.273438 -10.675781 8.625 -11.265625 9.0625 -11.734375 C 9.5 -12.210938 10.019531 -12.453125 10.625 -12.453125 C 11.070312 -12.453125 11.421875 -12.332031 11.671875 -12.09375 C 11.921875 -11.863281 12.046875 -11.546875 12.046875 -11.140625 C 12.046875 -10.816406 11.941406 -10.523438 11.734375 -10.265625 C 11.535156 -10.015625 11.226562 -9.890625 10.8125 -9.890625 C 10.59375 -9.890625 10.375 -9.96875 10.15625 -10.125 C 9.945312 -10.28125 9.820312 -10.46875 9.78125 -10.6875 C 9.601562 -10.632812 9.425781 -10.457031 9.25 -10.15625 C 9.070312 -9.863281 8.96875 -9.59375 8.9375 -9.34375 C 9.320312 -9 9.617188 -8.601562 9.828125 -8.15625 C 10.046875 -7.707031 10.15625 -7.222656 10.15625 -6.703125 C 10.15625 -5.929688 9.929688 -5.234375 9.484375 -4.609375 C 9.046875 -3.984375 8.472656 -3.492188 7.765625 -3.140625 C 7.054688 -2.796875 6.296875 -2.625 5.484375 -2.625 L 4.90625 -2.65625 C 4.601562 -2.675781 4.382812 -2.6875 4.25 -2.6875 C 3.945312 -2.6875 3.691406 -2.628906 3.484375 -2.515625 C 3.285156 -2.410156 3.1875 -2.265625 3.1875 -2.078125 C 3.1875 -1.828125 3.375 -1.648438 3.75 -1.546875 C 4.125 -1.441406 4.8125 -1.363281 5.8125 -1.3125 C 7.539062 -1.21875 8.847656 -0.929688 9.734375 -0.453125 C 10.628906 0.0234375 11.078125 0.828125 11.078125 1.953125 C 11.078125 2.691406 10.789062 3.332031 10.21875 3.875 C 9.65625 4.425781 8.921875 4.84375 8.015625 5.125 C 7.117188 5.414062 6.203125 5.5625 5.265625 5.5625 Z M 5.5625 -4 C 6.082031 -4 6.5 -4.234375 6.8125 -4.703125 C 7.125 -5.171875 7.28125 -5.710938 7.28125 -6.328125 C 7.28125 -7.109375 7.128906 -7.785156 6.828125 -8.359375 C 6.523438 -8.929688 6.097656 -9.21875 5.546875 -9.21875 C 5.023438 -9.21875 4.609375 -8.976562 4.296875 -8.5 C 3.984375 -8.019531 3.828125 -7.453125 3.828125 -6.796875 C 3.828125 -6.035156 3.984375 -5.378906 4.296875 -4.828125 C 4.609375 -4.273438 5.03125 -4 5.5625 -4 Z M 5.859375 4.15625 C 6.472656 4.15625 7 4.070312 7.4375 3.90625 C 7.882812 3.738281 8.222656 3.523438 8.453125 3.265625 C 8.691406 3.015625 8.8125 2.757812 8.8125 2.5 C 8.8125 2.082031 8.566406 1.765625 8.078125 1.546875 C 7.597656 1.328125 6.859375 1.195312 5.859375 1.15625 C 5.742188 1.132812 5.566406 1.125 5.328125 1.125 C 5.179688 1.113281 4.9375 1.097656 4.59375 1.078125 C 4.257812 1.054688 3.984375 1.023438 3.765625 0.984375 C 3.554688 1.148438 3.394531 1.363281 3.28125 1.625 C 3.164062 1.882812 3.109375 2.144531 3.109375 2.40625 C 3.109375 2.9375 3.359375 3.359375 3.859375 3.671875 C 4.359375 3.992188 5.023438 4.15625 5.859375 4.15625 Z M 5.859375 4.15625 "/></g></g></g><g fill="#ffffff" fill-opacity="1"><g transform="translate(43.970821, 45.035575)"><g><path d="M 3.734375 -12.3125 C 3.273438 -12.3125 2.894531 -12.46875 2.59375 -12.78125 C 2.289062 -13.101562 2.140625 -13.5 2.140625 -13.96875 C 2.140625 -14.4375 2.296875 -14.835938 2.609375 -15.171875 C 2.921875 -15.503906 3.289062 -15.671875 3.71875 -15.671875 C 4.15625 -15.671875 4.519531 -15.503906 4.8125 -15.171875 C 5.113281 -14.847656 5.265625 -14.445312 5.265625 -13.96875 C 5.265625 -13.488281 5.125 -13.09375 4.84375 -12.78125 C 4.5625 -12.46875 4.191406 -12.3125 3.734375 -12.3125 Z M 0.84375 -1.328125 C 1.363281 -1.328125 1.695312 -1.472656 1.84375 -1.765625 C 1.988281 -2.054688 2.0625 -2.523438 2.0625 -3.171875 L 2.0625 -6.578125 C 2.0625 -7.222656 2.085938 -7.816406 2.140625 -8.359375 L 0.703125 -8.296875 L 0.703125 -9.859375 C 1.566406 -9.859375 2.265625 -9.921875 2.796875 -10.046875 C 3.328125 -10.171875 3.679688 -10.316406 3.859375 -10.484375 L 4.96875 -10.484375 L 4.96875 -3.3125 C 4.96875 -2.65625 4.941406 -2.050781 4.890625 -1.5 C 5.328125 -1.539062 5.769531 -1.5625 6.21875 -1.5625 L 6.21875 0 L 0.84375 0 Z M 0.84375 -1.328125 "/></g></g></g><g fill="#ffffff" fill-opacity="1"><g transform="translate(50.690269, 45.035575)"><g><path d="M 4.90625 0.328125 C 2.769531 0.328125 1.703125 -0.984375 1.703125 -3.609375 L 1.75 -8.5625 L 0.34375 -8.5625 L 0.34375 -10.28125 C 0.78125 -10.28125 1.191406 -10.414062 1.578125 -10.6875 C 1.972656 -10.957031 2.304688 -11.289062 2.578125 -11.6875 C 2.859375 -12.082031 3.054688 -12.46875 3.171875 -12.84375 L 4.6875 -12.84375 L 4.671875 -10.28125 L 7.28125 -10.28125 L 7.28125 -8.6875 L 4.671875 -8.625 L 4.640625 -3.578125 C 4.640625 -2.242188 5.050781 -1.578125 5.875 -1.578125 C 6.53125 -1.578125 7.15625 -1.988281 7.75 -2.8125 L 8.734375 -1.890625 C 8.085938 -0.941406 7.441406 -0.332031 6.796875 -0.0625 C 6.148438 0.195312 5.519531 0.328125 4.90625 0.328125 Z M 4.90625 0.328125 "/></g></g></g><g fill="#ffffff" fill-opacity="1"><g transform="translate(59.176915, 45.035575)"><g><path d="M 3.40625 0.328125 C 2.539062 0.328125 1.859375 0.0703125 1.359375 -0.4375 C 0.859375 -0.957031 0.609375 -1.613281 0.609375 -2.40625 C 0.609375 -3.613281 1.171875 -4.523438 2.296875 -5.140625 C 3.421875 -5.765625 4.769531 -6.113281 6.34375 -6.1875 L 6.34375 -7.25 C 6.34375 -8.5 5.878906 -9.125 4.953125 -9.125 C 4.347656 -9.125 3.851562 -8.929688 3.46875 -8.546875 C 3.632812 -8.359375 3.71875 -8.097656 3.71875 -7.765625 C 3.71875 -7.441406 3.601562 -7.148438 3.375 -6.890625 C 3.15625 -6.628906 2.828125 -6.5 2.390625 -6.5 C 1.972656 -6.5 1.644531 -6.628906 1.40625 -6.890625 C 1.175781 -7.160156 1.0625 -7.492188 1.0625 -7.890625 C 1.0625 -8.421875 1.253906 -8.890625 1.640625 -9.296875 C 2.023438 -9.710938 2.550781 -10.035156 3.21875 -10.265625 C 3.882812 -10.492188 4.613281 -10.609375 5.40625 -10.609375 C 7.9375 -10.609375 9.203125 -9.296875 9.203125 -6.671875 L 9.1875 -3.3125 C 9.1875 -2.65625 9.160156 -2.050781 9.109375 -1.5 C 9.554688 -1.539062 10 -1.5625 10.4375 -1.5625 L 10.4375 0 L 6.546875 0 C 6.523438 -0.175781 6.5 -0.488281 6.46875 -0.9375 L 6.453125 -0.9375 C 5.617188 -0.09375 4.601562 0.328125 3.40625 0.328125 Z M 4.703125 -1.6875 C 5.316406 -1.6875 5.859375 -1.929688 6.328125 -2.421875 L 6.328125 -4.71875 C 5.515625 -4.644531 4.84375 -4.441406 4.3125 -4.109375 C 3.789062 -3.773438 3.53125 -3.332031 3.53125 -2.78125 C 3.53125 -2.40625 3.644531 -2.128906 3.875 -1.953125 C 4.101562 -1.773438 4.378906 -1.6875 4.703125 -1.6875 Z M 4.703125 -1.6875 "/></g></g></g><g fill="#ffffff" fill-opacity="1"><g transform="translate(69.944477, 45.035575)"><g><path d="M 0.515625 -1.328125 C 0.878906 -1.328125 1.144531 -1.398438 1.3125 -1.546875 C 1.488281 -1.691406 1.597656 -1.882812 1.640625 -2.125 C 1.691406 -2.375 1.71875 -2.722656 1.71875 -3.171875 L 1.71875 -11.609375 C 1.71875 -12.265625 1.75 -12.859375 1.8125 -13.390625 L 0.375 -13.328125 L 0.375 -14.890625 C 1.238281 -14.890625 1.9375 -14.953125 2.46875 -15.078125 C 3 -15.203125 3.351562 -15.347656 3.53125 -15.515625 L 4.640625 -15.515625 L 4.640625 -3.3125 C 4.640625 -2.65625 4.613281 -2.050781 4.5625 -1.5 C 5.007812 -1.539062 5.453125 -1.5625 5.890625 -1.5625 L 5.890625 0 L 0.515625 0 Z M 0.515625 -1.328125 "/></g></g></g><g fill="#ffffff" fill-opacity="1"><g transform="translate(74.871273, 42.840974)"><g><path d="M 9.046875 0.109375 L 2.265625 -22.703125 C 2.085938 -23.296875 1.894531 -23.722656 1.6875 -23.984375 C 1.476562 -24.253906 1.117188 -24.503906 0.609375 -24.734375 L 0.15625 -24.9375 L 0.15625 -25.3125 L 10.3125 -25.3125 L 10.3125 -24.9375 L 9.515625 -24.625 C 8.921875 -24.394531 8.519531 -24.113281 8.3125 -23.78125 C 8.113281 -23.445312 8.101562 -22.988281 8.28125 -22.40625 L 12.46875 -6.4375 L 17 -19.828125 L 16.109375 -22.5625 C 15.929688 -23.09375 15.765625 -23.5 15.609375 -23.78125 C 15.453125 -24.0625 15.195312 -24.289062 14.84375 -24.46875 L 14 -24.9375 L 14 -25.3125 L 23.625 -25.3125 L 23.625 -24.9375 L 22.4375 -24.46875 C 21.925781 -24.289062 21.640625 -24.03125 21.578125 -23.6875 C 21.515625 -23.34375 21.570312 -22.898438 21.75 -22.359375 L 26.625 -6.0625 L 31.21875 -22.0625 C 31.40625 -22.675781 31.472656 -23.210938 31.421875 -23.671875 C 31.367188 -24.128906 31.046875 -24.460938 30.453125 -24.671875 L 29.65625 -24.9375 L 29.65625 -25.3125 L 34.984375 -25.3125 L 34.984375 -24.9375 L 33.984375 -24.546875 C 33.472656 -24.367188 33.113281 -24.085938 32.90625 -23.703125 C 32.707031 -23.316406 32.53125 -22.84375 32.375 -22.28125 L 26 0.109375 L 23.359375 0.109375 L 17.609375 -17.90625 L 11.703125 0.109375 Z M 9.046875 0.109375 "/></g></g></g><g fill="#ffffff" fill-opacity="1"><g transform="translate(103.683057, 45.035575)"><g><path d="M 5.875 0.328125 C 4.875 0.328125 3.976562 0.117188 3.1875 -0.296875 C 2.394531 -0.722656 1.769531 -1.332031 1.3125 -2.125 C 0.863281 -2.925781 0.640625 -3.851562 0.640625 -4.90625 C 0.640625 -6.019531 0.867188 -7.003906 1.328125 -7.859375 C 1.796875 -8.722656 2.421875 -9.394531 3.203125 -9.875 C 3.992188 -10.363281 4.863281 -10.609375 5.8125 -10.609375 C 6.800781 -10.609375 7.6875 -10.394531 8.46875 -9.96875 C 9.25 -9.539062 9.863281 -8.925781 10.3125 -8.125 C 10.769531 -7.320312 11 -6.390625 11 -5.328125 C 11 -4.179688 10.78125 -3.179688 10.34375 -2.328125 C 9.914062 -1.484375 9.3125 -0.828125 8.53125 -0.359375 C 7.757812 0.0976562 6.875 0.328125 5.875 0.328125 Z M 5.921875 -1.125 C 6.671875 -1.125 7.195312 -1.472656 7.5 -2.171875 C 7.800781 -2.867188 7.953125 -3.75 7.953125 -4.8125 C 7.953125 -5.988281 7.78125 -7.003906 7.4375 -7.859375 C 7.09375 -8.722656 6.550781 -9.15625 5.8125 -9.15625 C 5.0625 -9.15625 4.515625 -8.800781 4.171875 -8.09375 C 3.828125 -7.382812 3.65625 -6.507812 3.65625 -5.46875 C 3.65625 -4.269531 3.835938 -3.242188 4.203125 -2.390625 C 4.578125 -1.546875 5.148438 -1.125 5.921875 -1.125 Z M 5.921875 -1.125 "/></g></g></g><g fill="#ffffff" fill-opacity="1"><g transform="translate(115.313665, 45.035575)"><g><path d="M 0.84375 -1.328125 C 1.363281 -1.328125 1.695312 -1.472656 1.84375 -1.765625 C 1.988281 -2.054688 2.0625 -2.523438 2.0625 -3.171875 L 2.0625 -6.609375 C 2.0625 -7.234375 2.085938 -7.816406 2.140625 -8.359375 L 0.703125 -8.296875 L 0.703125 -9.859375 C 1.566406 -9.859375 2.265625 -9.921875 2.796875 -10.046875 C 3.328125 -10.171875 3.679688 -10.316406 3.859375 -10.484375 L 4.875 -10.484375 C 4.894531 -10.273438 4.910156 -10.003906 4.921875 -9.671875 C 4.941406 -9.347656 4.953125 -9.03125 4.953125 -8.71875 L 5 -8.71875 C 5.925781 -9.976562 6.910156 -10.609375 7.953125 -10.609375 C 8.472656 -10.609375 8.898438 -10.460938 9.234375 -10.171875 C 9.566406 -9.878906 9.734375 -9.453125 9.734375 -8.890625 C 9.734375 -8.535156 9.617188 -8.207031 9.390625 -7.90625 C 9.160156 -7.601562 8.8125 -7.453125 8.34375 -7.453125 C 8 -7.453125 7.691406 -7.539062 7.421875 -7.71875 C 7.160156 -7.90625 7.007812 -8.21875 6.96875 -8.65625 C 6.582031 -8.65625 6.1875 -8.429688 5.78125 -7.984375 C 5.375 -7.535156 5.101562 -7.09375 4.96875 -6.65625 L 4.96875 -3.3125 C 4.96875 -2.65625 4.941406 -2.050781 4.890625 -1.5 C 5.328125 -1.539062 5.769531 -1.5625 6.21875 -1.5625 L 6.21875 0 L 0.84375 0 Z M 0.84375 -1.328125 "/></g></g></g><g fill="#ffffff" fill-opacity="1"><g transform="translate(125.177076, 45.035575)"><g><path d="M 0.515625 -1.328125 C 1.035156 -1.328125 1.367188 -1.472656 1.515625 -1.765625 C 1.671875 -2.054688 1.75 -2.523438 1.75 -3.171875 L 1.75 -11.609375 C 1.75 -12.265625 1.773438 -12.859375 1.828125 -13.390625 L 0.390625 -13.328125 L 0.390625 -14.890625 C 1.253906 -14.890625 1.953125 -14.953125 2.484375 -15.078125 C 3.015625 -15.203125 3.363281 -15.347656 3.53125 -15.515625 L 4.671875 -15.515625 L 4.671875 -6.140625 L 5.65625 -6.140625 L 7.125 -7.84375 C 7.550781 -8.320312 7.820312 -8.613281 7.9375 -8.71875 L 7.9375 -8.734375 L 6.84375 -8.71875 L 6.84375 -10.28125 L 11.46875 -10.28125 L 11.46875 -8.953125 C 10.8125 -8.890625 10.253906 -8.707031 9.796875 -8.40625 C 9.335938 -8.113281 8.921875 -7.753906 8.546875 -7.328125 L 7.234375 -5.875 L 7.234375 -5.859375 C 7.453125 -5.742188 7.660156 -5.59375 7.859375 -5.40625 C 8.054688 -5.226562 8.289062 -4.953125 8.5625 -4.578125 L 9.9375 -2.78125 C 10.300781 -2.332031 10.617188 -1.976562 10.890625 -1.71875 C 11.160156 -1.457031 11.472656 -1.328125 11.828125 -1.328125 L 11.828125 0 L 9.46875 0 C 9.0625 0 8.695312 -0.132812 8.375 -0.40625 C 8.0625 -0.6875 7.664062 -1.144531 7.1875 -1.78125 C 6.664062 -2.476562 6.164062 -3.191406 5.6875 -3.921875 L 5.140625 -4.703125 L 4.671875 -4.6875 L 4.671875 -3.3125 C 4.671875 -2.65625 4.640625 -2.050781 4.578125 -1.5 C 5.015625 -1.539062 5.460938 -1.5625 5.921875 -1.5625 L 5.921875 0 L 0.515625 0 Z M 0.515625 -1.328125 "/></g></g></g><g fill="#ffffff" fill-opacity="1"><g transform="translate(137.383048, 45.035575)"><g><path d="M 5.5625 0.328125 C 4.976562 0.328125 4.40625 0.25 3.84375 0.09375 C 3.28125 -0.0507812 2.84375 -0.238281 2.53125 -0.46875 L 2.5 -0.46875 L 2.5625 0.140625 L 1 0.140625 L 0.921875 -3.390625 L 2.265625 -3.390625 C 2.328125 -2.753906 2.65625 -2.222656 3.25 -1.796875 C 3.851562 -1.367188 4.582031 -1.15625 5.4375 -1.15625 C 5.820312 -1.15625 6.15625 -1.242188 6.4375 -1.421875 C 6.71875 -1.597656 6.859375 -1.847656 6.859375 -2.171875 C 6.859375 -2.421875 6.769531 -2.628906 6.59375 -2.796875 C 6.414062 -2.960938 6.203125 -3.097656 5.953125 -3.203125 C 5.710938 -3.316406 5.222656 -3.515625 4.484375 -3.796875 C 3.609375 -4.140625 2.945312 -4.421875 2.5 -4.640625 C 2.0625 -4.859375 1.664062 -5.179688 1.3125 -5.609375 C 0.96875 -6.046875 0.796875 -6.609375 0.796875 -7.296875 C 0.796875 -7.859375 0.9375 -8.390625 1.21875 -8.890625 C 1.5 -9.390625 1.929688 -9.800781 2.515625 -10.125 C 3.097656 -10.445312 3.816406 -10.609375 4.671875 -10.609375 C 5.066406 -10.609375 5.492188 -10.546875 5.953125 -10.421875 C 6.421875 -10.296875 6.8125 -10.125 7.125 -9.90625 L 7.15625 -9.90625 L 7.125 -10.5 L 8.6875 -10.5 L 8.6875 -6.859375 L 7.359375 -6.859375 C 7.234375 -7.578125 6.914062 -8.140625 6.40625 -8.546875 C 5.90625 -8.953125 5.285156 -9.15625 4.546875 -9.15625 C 4.160156 -9.15625 3.835938 -9.066406 3.578125 -8.890625 C 3.316406 -8.710938 3.1875 -8.441406 3.1875 -8.078125 C 3.1875 -7.691406 3.335938 -7.40625 3.640625 -7.21875 C 3.941406 -7.03125 4.445312 -6.820312 5.15625 -6.59375 C 5.238281 -6.582031 5.414062 -6.53125 5.6875 -6.4375 C 6.851562 -6.019531 7.75 -5.535156 8.375 -4.984375 C 9 -4.441406 9.3125 -3.722656 9.3125 -2.828125 C 9.3125 -2.148438 9.132812 -1.570312 8.78125 -1.09375 C 8.4375 -0.625 7.976562 -0.269531 7.40625 -0.03125 C 6.832031 0.207031 6.21875 0.328125 5.5625 0.328125 Z M 5.5625 0.328125 "/></g></g></g></svg>