<svg xmlns="http://www.w3.org/2000/svg" xmlns:xlink="http://www.w3.org/1999/xlink" width="200" zoomAndPan="magnify" viewBox="0 0 150 74.999997" height="100" preserveAspectRatio="xMidYMid meet" version="1.0"><defs><g/></defs><g fill="#55e6a5" fill-opacity="1"><g transform="translate(-1.010261, 47.224437)"><g><path d="M 0.921875 0 L 0.921875 -0.421875 L 1.8125 -0.75 C 2.707031 -1.113281 3.15625 -1.832031 3.15625 -2.90625 L 3.15625 -24.84375 C 3.15625 -25.96875 2.707031 -26.6875 1.8125 -27 L 0.921875 -27.328125 L 0.921875 -27.75 L 12.03125 -27.75 C 15 -27.75 17.554688 -27.191406 19.703125 -26.078125 C 21.847656 -24.972656 23.5 -23.390625 24.65625 -21.328125 C 25.820312 -19.273438 26.40625 -16.804688 26.40625 -13.921875 C 26.40625 -10.972656 25.773438 -8.460938 24.515625 -6.390625 C 23.253906 -4.316406 21.492188 -2.734375 19.234375 -1.640625 C 16.984375 -0.546875 14.328125 0 11.265625 0 Z M 9.453125 -0.84375 L 11.265625 -0.84375 C 13.285156 -0.84375 14.910156 -1.238281 16.140625 -2.03125 C 17.378906 -2.832031 18.285156 -4.175781 18.859375 -6.0625 C 19.429688 -7.957031 19.71875 -10.5625 19.71875 -13.875 C 19.71875 -17.1875 19.429688 -19.785156 18.859375 -21.671875 C 18.285156 -23.566406 17.394531 -24.910156 16.1875 -25.703125 C 14.976562 -26.503906 13.394531 -26.90625 11.4375 -26.90625 L 9.453125 -26.90625 Z M 9.453125 -0.84375 "/></g></g></g><g fill="#ffffff" fill-opacity="1"><g transform="translate(19.575373, 41.592412)"><g><path d="M 4.09375 -13.5 C 3.582031 -13.5 3.160156 -13.675781 2.828125 -14.03125 C 2.503906 -14.382812 2.34375 -14.816406 2.34375 -15.328125 C 2.34375 -15.835938 2.515625 -16.273438 2.859375 -16.640625 C 3.203125 -17.003906 3.609375 -17.1875 4.078125 -17.1875 C 4.554688 -17.1875 4.957031 -17.003906 5.28125 -16.640625 C 5.601562 -16.285156 5.765625 -15.847656 5.765625 -15.328125 C 5.765625 -14.796875 5.609375 -14.359375 5.296875 -14.015625 C 4.992188 -13.671875 4.59375 -13.5 4.09375 -13.5 Z M 0.921875 -1.46875 C 1.492188 -1.46875 1.859375 -1.625 2.015625 -1.9375 C 2.171875 -2.25 2.25 -2.757812 2.25 -3.46875 L 2.25 -7.203125 C 2.25 -7.910156 2.28125 -8.566406 2.34375 -9.171875 L 0.765625 -9.109375 L 0.765625 -10.8125 C 1.710938 -10.8125 2.476562 -10.878906 3.0625 -11.015625 C 3.644531 -11.148438 4.035156 -11.304688 4.234375 -11.484375 L 5.453125 -11.484375 L 5.453125 -3.625 C 5.453125 -2.90625 5.421875 -2.242188 5.359375 -1.640625 C 5.835938 -1.691406 6.328125 -1.71875 6.828125 -1.71875 L 6.828125 0 L 0.921875 0 Z M 0.921875 -1.46875 "/></g></g></g><g fill="#ffffff" fill-opacity="1"><g transform="translate(26.942056, 41.592412)"><g><path d="M 5.765625 6.109375 C 3.953125 6.109375 2.640625 5.828125 1.828125 5.265625 C 1.023438 4.710938 0.625 4.007812 0.625 3.15625 C 0.625 2.625 0.789062 2.128906 1.125 1.671875 C 1.46875 1.210938 2.015625 0.84375 2.765625 0.5625 C 2.179688 0.394531 1.757812 0.140625 1.5 -0.203125 C 1.238281 -0.546875 1.109375 -0.953125 1.109375 -1.421875 C 1.109375 -1.867188 1.28125 -2.328125 1.625 -2.796875 C 1.976562 -3.265625 2.535156 -3.609375 3.296875 -3.828125 L 3.296875 -3.859375 C 2.617188 -4.128906 2.078125 -4.550781 1.671875 -5.125 C 1.273438 -5.707031 1.078125 -6.394531 1.078125 -7.1875 C 1.078125 -8.03125 1.3125 -8.789062 1.78125 -9.46875 C 2.257812 -10.144531 2.882812 -10.671875 3.65625 -11.046875 C 4.4375 -11.429688 5.253906 -11.625 6.109375 -11.625 C 6.554688 -11.625 7.023438 -11.566406 7.515625 -11.453125 C 8.015625 -11.335938 8.4375 -11.160156 8.78125 -10.921875 C 9.070312 -11.703125 9.457031 -12.351562 9.9375 -12.875 C 10.414062 -13.394531 10.988281 -13.65625 11.65625 -13.65625 C 12.144531 -13.65625 12.523438 -13.523438 12.796875 -13.265625 C 13.066406 -13.015625 13.203125 -12.664062 13.203125 -12.21875 C 13.203125 -11.863281 13.09375 -11.546875 12.875 -11.265625 C 12.65625 -10.984375 12.3125 -10.84375 11.84375 -10.84375 C 11.601562 -10.84375 11.367188 -10.925781 11.140625 -11.09375 C 10.910156 -11.269531 10.769531 -11.476562 10.71875 -11.71875 C 10.53125 -11.65625 10.335938 -11.460938 10.140625 -11.140625 C 9.941406 -10.816406 9.828125 -10.519531 9.796875 -10.25 C 10.222656 -9.875 10.550781 -9.4375 10.78125 -8.9375 C 11.007812 -8.445312 11.125 -7.914062 11.125 -7.34375 C 11.125 -6.5 10.882812 -5.734375 10.40625 -5.046875 C 9.925781 -4.367188 9.296875 -3.835938 8.515625 -3.453125 C 7.734375 -3.078125 6.898438 -2.890625 6.015625 -2.890625 L 5.390625 -2.90625 C 5.054688 -2.9375 4.8125 -2.953125 4.65625 -2.953125 C 4.332031 -2.953125 4.054688 -2.890625 3.828125 -2.765625 C 3.609375 -2.648438 3.5 -2.488281 3.5 -2.28125 C 3.5 -2.007812 3.703125 -1.816406 4.109375 -1.703125 C 4.523438 -1.585938 5.28125 -1.5 6.375 -1.4375 C 8.269531 -1.332031 9.703125 -1.015625 10.671875 -0.484375 C 11.648438 0.0351562 12.140625 0.910156 12.140625 2.140625 C 12.140625 2.953125 11.828125 3.65625 11.203125 4.25 C 10.585938 4.851562 9.785156 5.3125 8.796875 5.625 C 7.816406 5.945312 6.804688 6.109375 5.765625 6.109375 Z M 6.109375 -4.390625 C 6.679688 -4.390625 7.132812 -4.644531 7.46875 -5.15625 C 7.800781 -5.664062 7.96875 -6.257812 7.96875 -6.9375 C 7.96875 -7.789062 7.800781 -8.53125 7.46875 -9.15625 C 7.144531 -9.789062 6.679688 -10.109375 6.078125 -10.109375 C 5.515625 -10.109375 5.054688 -9.847656 4.703125 -9.328125 C 4.359375 -8.804688 4.1875 -8.179688 4.1875 -7.453125 C 4.1875 -6.617188 4.359375 -5.898438 4.703125 -5.296875 C 5.054688 -4.691406 5.523438 -4.390625 6.109375 -4.390625 Z M 6.421875 4.546875 C 7.097656 4.546875 7.679688 4.457031 8.171875 4.28125 C 8.660156 4.101562 9.03125 3.875 9.28125 3.59375 C 9.539062 3.3125 9.671875 3.03125 9.671875 2.75 C 9.671875 2.28125 9.398438 1.925781 8.859375 1.6875 C 8.328125 1.445312 7.515625 1.304688 6.421875 1.265625 C 6.296875 1.242188 6.097656 1.234375 5.828125 1.234375 C 5.679688 1.222656 5.421875 1.207031 5.046875 1.1875 C 4.671875 1.164062 4.363281 1.128906 4.125 1.078125 C 3.894531 1.265625 3.71875 1.5 3.59375 1.78125 C 3.46875 2.0625 3.40625 2.347656 3.40625 2.640625 C 3.40625 3.222656 3.675781 3.6875 4.21875 4.03125 C 4.769531 4.375 5.503906 4.546875 6.421875 4.546875 Z M 6.421875 4.546875 "/></g></g></g><g fill="#ffffff" fill-opacity="1"><g transform="translate(39.490193, 41.592412)"><g><path d="M 4.09375 -13.5 C 3.582031 -13.5 3.160156 -13.675781 2.828125 -14.03125 C 2.503906 -14.382812 2.34375 -14.816406 2.34375 -15.328125 C 2.34375 -15.835938 2.515625 -16.273438 2.859375 -16.640625 C 3.203125 -17.003906 3.609375 -17.1875 4.078125 -17.1875 C 4.554688 -17.1875 4.957031 -17.003906 5.28125 -16.640625 C 5.601562 -16.285156 5.765625 -15.847656 5.765625 -15.328125 C 5.765625 -14.796875 5.609375 -14.359375 5.296875 -14.015625 C 4.992188 -13.671875 4.59375 -13.5 4.09375 -13.5 Z M 0.921875 -1.46875 C 1.492188 -1.46875 1.859375 -1.625 2.015625 -1.9375 C 2.171875 -2.25 2.25 -2.757812 2.25 -3.46875 L 2.25 -7.203125 C 2.25 -7.910156 2.28125 -8.566406 2.34375 -9.171875 L 0.765625 -9.109375 L 0.765625 -10.8125 C 1.710938 -10.8125 2.476562 -10.878906 3.0625 -11.015625 C 3.644531 -11.148438 4.035156 -11.304688 4.234375 -11.484375 L 5.453125 -11.484375 L 5.453125 -3.625 C 5.453125 -2.90625 5.421875 -2.242188 5.359375 -1.640625 C 5.835938 -1.691406 6.328125 -1.71875 6.828125 -1.71875 L 6.828125 0 L 0.921875 0 Z M 0.921875 -1.46875 "/></g></g></g><g fill="#ffffff" fill-opacity="1"><g transform="translate(46.856875, 41.592412)"><g><path d="M 5.390625 0.359375 C 3.046875 0.359375 1.875 -1.082031 1.875 -3.96875 L 1.921875 -9.390625 L 0.390625 -9.390625 L 0.390625 -11.265625 C 0.867188 -11.265625 1.320312 -11.414062 1.75 -11.71875 C 2.175781 -12.019531 2.539062 -12.382812 2.84375 -12.8125 C 3.144531 -13.25 3.351562 -13.671875 3.46875 -14.078125 L 5.140625 -14.078125 L 5.109375 -11.265625 L 7.96875 -11.265625 L 7.96875 -9.53125 L 5.109375 -9.46875 L 5.09375 -3.921875 C 5.09375 -2.460938 5.539062 -1.734375 6.4375 -1.734375 C 7.164062 -1.734375 7.851562 -2.1875 8.5 -3.09375 L 9.578125 -2.078125 C 8.867188 -1.035156 8.160156 -0.367188 7.453125 -0.078125 C 6.753906 0.210938 6.066406 0.359375 5.390625 0.359375 Z M 5.390625 0.359375 "/></g></g></g><g fill="#ffffff" fill-opacity="1"><g transform="translate(56.160977, 41.592412)"><g><path d="M 3.734375 0.359375 C 2.796875 0.359375 2.050781 0.078125 1.5 -0.484375 C 0.945312 -1.046875 0.671875 -1.765625 0.671875 -2.640625 C 0.671875 -3.960938 1.285156 -4.960938 2.515625 -5.640625 C 3.753906 -6.328125 5.238281 -6.707031 6.96875 -6.78125 L 6.96875 -7.953125 C 6.96875 -9.316406 6.457031 -10 5.4375 -10 C 4.769531 -10 4.226562 -9.789062 3.8125 -9.375 C 3.988281 -9.164062 4.078125 -8.878906 4.078125 -8.515625 C 4.078125 -8.148438 3.953125 -7.828125 3.703125 -7.546875 C 3.453125 -7.265625 3.085938 -7.125 2.609375 -7.125 C 2.160156 -7.125 1.804688 -7.269531 1.546875 -7.5625 C 1.296875 -7.851562 1.171875 -8.21875 1.171875 -8.65625 C 1.171875 -9.238281 1.378906 -9.753906 1.796875 -10.203125 C 2.222656 -10.648438 2.800781 -11 3.53125 -11.25 C 4.257812 -11.5 5.054688 -11.625 5.921875 -11.625 C 8.703125 -11.625 10.09375 -10.191406 10.09375 -7.328125 L 10.078125 -3.625 C 10.078125 -2.90625 10.046875 -2.242188 9.984375 -1.640625 C 10.472656 -1.691406 10.960938 -1.71875 11.453125 -1.71875 L 11.453125 0 L 7.1875 0 C 7.15625 -0.195312 7.125 -0.539062 7.09375 -1.03125 L 7.078125 -1.03125 C 6.160156 -0.101562 5.046875 0.359375 3.734375 0.359375 Z M 5.15625 -1.84375 C 5.832031 -1.84375 6.425781 -2.113281 6.9375 -2.65625 L 6.9375 -5.1875 C 6.050781 -5.09375 5.316406 -4.863281 4.734375 -4.5 C 4.160156 -4.144531 3.875 -3.660156 3.875 -3.046875 C 3.875 -2.640625 4 -2.335938 4.25 -2.140625 C 4.5 -1.941406 4.800781 -1.84375 5.15625 -1.84375 Z M 5.15625 -1.84375 "/></g></g></g><g fill="#ffffff" fill-opacity="1"><g transform="translate(67.965699, 41.592412)"><g><path d="M 0.5625 -1.46875 C 0.96875 -1.46875 1.265625 -1.546875 1.453125 -1.703125 C 1.640625 -1.859375 1.757812 -2.070312 1.8125 -2.34375 C 1.863281 -2.613281 1.890625 -2.988281 1.890625 -3.46875 L 1.890625 -12.734375 C 1.890625 -13.453125 1.921875 -14.101562 1.984375 -14.6875 L 0.40625 -14.625 L 0.40625 -16.328125 C 1.351562 -16.328125 2.117188 -16.394531 2.703125 -16.53125 C 3.285156 -16.664062 3.675781 -16.828125 3.875 -17.015625 L 5.09375 -17.015625 L 5.09375 -3.625 C 5.09375 -2.90625 5.0625 -2.242188 5 -1.640625 C 5.5 -1.691406 5.988281 -1.71875 6.46875 -1.71875 L 6.46875 0 L 0.5625 0 Z M 0.5625 -1.46875 "/></g></g></g><g fill="#55e6a5" fill-opacity="1"><g transform="translate(75.502247, 47.224437)"><g><path d="M 9.921875 0.125 L 2.484375 -24.890625 C 2.285156 -25.535156 2.070312 -26.003906 1.84375 -26.296875 C 1.625 -26.585938 1.234375 -26.863281 0.671875 -27.125 L 0.171875 -27.328125 L 0.171875 -27.75 L 11.3125 -27.75 L 11.3125 -27.328125 L 10.421875 -27 C 9.773438 -26.738281 9.335938 -26.425781 9.109375 -26.0625 C 8.890625 -25.695312 8.878906 -25.195312 9.078125 -24.5625 L 13.671875 -7.0625 L 18.625 -21.734375 L 17.65625 -24.71875 C 17.457031 -25.3125 17.273438 -25.757812 17.109375 -26.0625 C 16.941406 -26.375 16.660156 -26.628906 16.265625 -26.828125 L 15.34375 -27.328125 L 15.34375 -27.75 L 25.90625 -27.75 L 25.90625 -27.328125 L 24.59375 -26.828125 C 24.03125 -26.628906 23.710938 -26.335938 23.640625 -25.953125 C 23.578125 -25.578125 23.644531 -25.097656 23.84375 -24.515625 L 29.1875 -6.640625 L 34.21875 -24.171875 C 34.414062 -24.847656 34.488281 -25.4375 34.4375 -25.9375 C 34.382812 -26.445312 34.035156 -26.8125 33.390625 -27.03125 L 32.5 -27.328125 L 32.5 -27.75 L 38.34375 -27.75 L 38.34375 -27.328125 L 37.25 -26.90625 C 36.6875 -26.707031 36.289062 -26.398438 36.0625 -25.984375 C 35.84375 -25.566406 35.648438 -25.046875 35.484375 -24.421875 L 28.5 0.125 L 25.609375 0.125 L 19.296875 -19.640625 L 12.828125 0.125 Z M 9.921875 0.125 "/></g></g></g><g fill="#ffffff" fill-opacity="1"><g transform="translate(101.829544, 40.916568)"><g><path d="M 6.4375 0.359375 C 5.34375 0.359375 4.359375 0.128906 3.484375 -0.328125 C 2.617188 -0.796875 1.9375 -1.46875 1.4375 -2.34375 C 0.945312 -3.21875 0.703125 -4.234375 0.703125 -5.390625 C 0.703125 -6.597656 0.957031 -7.675781 1.46875 -8.625 C 1.976562 -9.570312 2.664062 -10.304688 3.53125 -10.828125 C 4.394531 -11.359375 5.34375 -11.625 6.375 -11.625 C 7.457031 -11.625 8.425781 -11.390625 9.28125 -10.921875 C 10.132812 -10.460938 10.804688 -9.789062 11.296875 -8.90625 C 11.796875 -8.03125 12.046875 -7.003906 12.046875 -5.828125 C 12.046875 -4.585938 11.8125 -3.5 11.34375 -2.5625 C 10.875 -1.632812 10.210938 -0.914062 9.359375 -0.40625 C 8.515625 0.101562 7.539062 0.359375 6.4375 0.359375 Z M 6.484375 -1.234375 C 7.316406 -1.234375 7.894531 -1.613281 8.21875 -2.375 C 8.550781 -3.144531 8.71875 -4.109375 8.71875 -5.265625 C 8.71875 -6.554688 8.53125 -7.675781 8.15625 -8.625 C 7.78125 -9.570312 7.1875 -10.046875 6.375 -10.046875 C 5.550781 -10.046875 4.953125 -9.65625 4.578125 -8.875 C 4.203125 -8.09375 4.015625 -7.132812 4.015625 -6 C 4.015625 -4.6875 4.21875 -3.5625 4.625 -2.625 C 5.03125 -1.695312 5.648438 -1.234375 6.484375 -1.234375 Z M 6.484375 -1.234375 "/></g></g></g><g fill="#ffffff" fill-opacity="1"><g transform="translate(114.580443, 40.916568)"><g><path d="M 0.921875 -1.46875 C 1.492188 -1.46875 1.859375 -1.625 2.015625 -1.9375 C 2.171875 -2.25 2.25 -2.757812 2.25 -3.46875 L 2.25 -7.25 C 2.25 -7.925781 2.28125 -8.566406 2.34375 -9.171875 L 0.765625 -9.109375 L 0.765625 -10.8125 C 1.710938 -10.8125 2.476562 -10.878906 3.0625 -11.015625 C 3.644531 -11.148438 4.035156 -11.304688 4.234375 -11.484375 L 5.34375 -11.484375 C 5.375 -11.265625 5.394531 -10.972656 5.40625 -10.609375 C 5.425781 -10.253906 5.4375 -9.898438 5.4375 -9.546875 L 5.46875 -9.546875 C 6.488281 -10.929688 7.570312 -11.625 8.71875 -11.625 C 9.289062 -11.625 9.757812 -11.46875 10.125 -11.15625 C 10.5 -10.84375 10.6875 -10.375 10.6875 -9.75 C 10.6875 -9.363281 10.554688 -9.003906 10.296875 -8.671875 C 10.035156 -8.335938 9.648438 -8.171875 9.140625 -8.171875 C 8.765625 -8.171875 8.429688 -8.269531 8.140625 -8.46875 C 7.847656 -8.664062 7.679688 -9.003906 7.640625 -9.484375 C 7.210938 -9.484375 6.773438 -9.238281 6.328125 -8.75 C 5.890625 -8.257812 5.597656 -7.773438 5.453125 -7.296875 L 5.453125 -3.625 C 5.453125 -2.90625 5.421875 -2.242188 5.359375 -1.640625 C 5.835938 -1.691406 6.328125 -1.71875 6.828125 -1.71875 L 6.828125 0 L 0.921875 0 Z M 0.921875 -1.46875 "/></g></g></g><g fill="#ffffff" fill-opacity="1"><g transform="translate(125.393923, 40.916568)"><g><path d="M 0.5625 -1.46875 C 1.132812 -1.46875 1.503906 -1.625 1.671875 -1.9375 C 1.835938 -2.25 1.921875 -2.757812 1.921875 -3.46875 L 1.921875 -12.734375 C 1.921875 -13.453125 1.945312 -14.101562 2 -14.6875 L 0.421875 -14.625 L 0.421875 -16.328125 C 1.367188 -16.328125 2.132812 -16.394531 2.71875 -16.53125 C 3.3125 -16.664062 3.695312 -16.828125 3.875 -17.015625 L 5.109375 -17.015625 L 5.109375 -6.734375 L 6.203125 -6.734375 L 7.8125 -8.609375 C 8.28125 -9.128906 8.578125 -9.441406 8.703125 -9.546875 L 8.703125 -9.578125 L 7.5 -9.546875 L 7.5 -11.265625 L 12.578125 -11.265625 L 12.578125 -9.828125 C 11.847656 -9.753906 11.234375 -9.550781 10.734375 -9.21875 C 10.234375 -8.894531 9.78125 -8.503906 9.375 -8.046875 L 7.9375 -6.4375 L 7.9375 -6.421875 C 8.175781 -6.296875 8.398438 -6.132812 8.609375 -5.9375 C 8.828125 -5.738281 9.085938 -5.4375 9.390625 -5.03125 L 10.90625 -3.046875 C 11.289062 -2.566406 11.632812 -2.179688 11.9375 -1.890625 C 12.238281 -1.609375 12.585938 -1.46875 12.984375 -1.46875 L 12.984375 0 L 10.390625 0 C 9.941406 0 9.539062 -0.148438 9.1875 -0.453125 C 8.84375 -0.753906 8.410156 -1.253906 7.890625 -1.953125 C 7.316406 -2.722656 6.765625 -3.503906 6.234375 -4.296875 L 5.640625 -5.15625 L 5.109375 -5.140625 L 5.109375 -3.625 C 5.109375 -2.90625 5.082031 -2.242188 5.03125 -1.640625 C 5.507812 -1.691406 5.992188 -1.71875 6.484375 -1.71875 L 6.484375 0 L 0.5625 0 Z M 0.5625 -1.46875 "/></g></g></g><g fill="#ffffff" fill-opacity="1"><g transform="translate(138.775606, 40.916568)"><g><path d="M 6.109375 0.359375 C 5.460938 0.359375 4.832031 0.273438 4.21875 0.109375 C 3.601562 -0.0546875 3.117188 -0.265625 2.765625 -0.515625 L 2.75 -0.515625 L 2.8125 0.15625 L 1.109375 0.15625 L 1.015625 -3.71875 L 2.484375 -3.71875 C 2.554688 -3.03125 2.914062 -2.445312 3.5625 -1.96875 C 4.21875 -1.5 5.019531 -1.265625 5.96875 -1.265625 C 6.394531 -1.265625 6.757812 -1.359375 7.0625 -1.546875 C 7.375 -1.742188 7.53125 -2.023438 7.53125 -2.390625 C 7.53125 -2.660156 7.429688 -2.882812 7.234375 -3.0625 C 7.035156 -3.238281 6.800781 -3.382812 6.53125 -3.5 C 6.257812 -3.625 5.71875 -3.847656 4.90625 -4.171875 C 3.945312 -4.546875 3.226562 -4.851562 2.75 -5.09375 C 2.269531 -5.332031 1.835938 -5.6875 1.453125 -6.15625 C 1.066406 -6.632812 0.875 -7.25 0.875 -8 C 0.875 -8.613281 1.023438 -9.191406 1.328125 -9.734375 C 1.640625 -10.285156 2.113281 -10.738281 2.75 -11.09375 C 3.394531 -11.445312 4.179688 -11.625 5.109375 -11.625 C 5.546875 -11.625 6.019531 -11.554688 6.53125 -11.421875 C 7.039062 -11.285156 7.46875 -11.097656 7.8125 -10.859375 L 7.84375 -10.859375 L 7.8125 -11.515625 L 9.53125 -11.515625 L 9.53125 -7.53125 L 8.0625 -7.53125 C 7.925781 -8.3125 7.582031 -8.925781 7.03125 -9.375 C 6.476562 -9.820312 5.796875 -10.046875 4.984375 -10.046875 C 4.554688 -10.046875 4.203125 -9.945312 3.921875 -9.75 C 3.640625 -9.5625 3.5 -9.265625 3.5 -8.859375 C 3.5 -8.429688 3.660156 -8.113281 3.984375 -7.90625 C 4.316406 -7.707031 4.875 -7.484375 5.65625 -7.234375 C 5.75 -7.210938 5.941406 -7.148438 6.234375 -7.046875 C 7.515625 -6.597656 8.492188 -6.070312 9.171875 -5.46875 C 9.859375 -4.875 10.203125 -4.085938 10.203125 -3.109375 C 10.203125 -2.359375 10.007812 -1.722656 9.625 -1.203125 C 9.25 -0.679688 8.75 -0.289062 8.125 -0.03125 C 7.5 0.226562 6.828125 0.359375 6.109375 0.359375 Z M 6.109375 0.359375 "/></g></g></g></svg>