<svg xmlns="http://www.w3.org/2000/svg" xmlns:xlink="http://www.w3.org/1999/xlink" width="200" zoomAndPan="magnify" viewBox="0 0 150 74.999997" height="100" preserveAspectRatio="xMidYMid meet" version="1.0"><defs><g/></defs><g fill="#00bf63" fill-opacity="1"><g transform="translate(21.939737, 68.980972)"><g><path d="M 2.234375 0 L 2.234375 -1.015625 L 4.375 -1.828125 C 6.550781 -2.710938 7.640625 -4.445312 7.640625 -7.03125 L 7.640625 -60.21875 C 7.640625 -62.9375 6.550781 -64.664062 4.375 -65.40625 L 2.234375 -66.234375 L 2.234375 -67.25 L 29.140625 -67.25 C 36.335938 -67.25 42.535156 -65.90625 47.734375 -63.21875 C 52.929688 -60.539062 56.9375 -56.703125 59.75 -51.703125 C 62.570312 -46.710938 63.984375 -40.71875 63.984375 -33.71875 C 63.984375 -26.59375 62.453125 -20.515625 59.390625 -15.484375 C 56.335938 -10.460938 52.078125 -6.625 46.609375 -3.96875 C 41.140625 -1.320312 34.707031 0 27.3125 0 Z M 22.921875 -2.03125 L 27.3125 -2.03125 C 32.195312 -2.03125 36.132812 -3 39.125 -4.9375 C 42.113281 -6.875 44.300781 -10.132812 45.6875 -14.71875 C 47.082031 -19.300781 47.78125 -25.601562 47.78125 -33.625 C 47.78125 -41.632812 47.082031 -47.929688 45.6875 -52.515625 C 44.300781 -57.109375 42.144531 -60.367188 39.21875 -62.296875 C 36.300781 -64.234375 32.46875 -65.203125 27.71875 -65.203125 L 22.921875 -65.203125 Z M 22.921875 -2.03125 "/></g></g></g><g fill="#55e6a5" fill-opacity="1"><g transform="translate(24.947918, 67.678725)"><g><path d="M 2.203125 0 L 2.203125 -1 L 4.296875 -1.796875 C 6.429688 -2.660156 7.5 -4.363281 7.5 -6.90625 L 7.5 -59.125 C 7.5 -61.789062 6.429688 -63.492188 4.296875 -64.234375 L 2.203125 -65.03125 L 2.203125 -66.03125 L 28.609375 -66.03125 C 35.679688 -66.03125 41.769531 -64.710938 46.875 -62.078125 C 51.976562 -59.441406 55.910156 -55.671875 58.671875 -50.765625 C 61.441406 -45.867188 62.828125 -39.984375 62.828125 -33.109375 C 62.828125 -26.109375 61.328125 -20.140625 58.328125 -15.203125 C 55.328125 -10.265625 51.140625 -6.492188 45.765625 -3.890625 C 40.398438 -1.296875 34.082031 0 26.8125 0 Z M 22.515625 -2 L 26.8125 -2 C 31.613281 -2 35.476562 -2.945312 38.40625 -4.84375 C 41.34375 -6.75 43.492188 -9.953125 44.859375 -14.453125 C 46.234375 -18.953125 46.921875 -25.140625 46.921875 -33.015625 C 46.921875 -40.890625 46.234375 -47.078125 44.859375 -51.578125 C 43.492188 -56.078125 41.378906 -59.273438 38.515625 -61.171875 C 35.648438 -63.078125 31.882812 -64.03125 27.21875 -64.03125 L 22.515625 -64.03125 Z M 22.515625 -2 "/></g></g></g><g fill="#00bf63" fill-opacity="1"><g transform="translate(88.444815, 68.2573)"><g><path d="M 10.671875 0.140625 L 2.671875 -26.78125 C 2.460938 -27.46875 2.234375 -27.96875 1.984375 -28.28125 C 1.742188 -28.601562 1.320312 -28.898438 0.71875 -29.171875 L 0.1875 -29.40625 L 0.1875 -29.859375 L 12.171875 -29.859375 L 12.171875 -29.40625 L 11.21875 -29.046875 C 10.519531 -28.773438 10.050781 -28.441406 9.8125 -28.046875 C 9.570312 -27.648438 9.554688 -27.109375 9.765625 -26.421875 L 14.703125 -7.59375 L 20.03125 -23.390625 L 19 -26.59375 C 18.789062 -27.226562 18.59375 -27.710938 18.40625 -28.046875 C 18.226562 -28.378906 17.925781 -28.648438 17.5 -28.859375 L 16.515625 -29.40625 L 16.515625 -29.859375 L 27.859375 -29.859375 L 27.859375 -29.40625 L 26.46875 -28.859375 C 25.863281 -28.648438 25.519531 -28.34375 25.4375 -27.9375 C 25.363281 -27.53125 25.429688 -27.007812 25.640625 -26.375 L 31.390625 -7.140625 L 36.828125 -26.015625 C 37.035156 -26.734375 37.109375 -27.363281 37.046875 -27.90625 C 36.984375 -28.445312 36.609375 -28.835938 35.921875 -29.078125 L 34.96875 -29.40625 L 34.96875 -29.859375 L 41.25 -29.859375 L 41.25 -29.40625 L 40.078125 -28.953125 C 39.472656 -28.742188 39.050781 -28.410156 38.8125 -27.953125 C 38.570312 -27.503906 38.359375 -26.945312 38.171875 -26.28125 L 30.671875 0.140625 L 27.546875 0.140625 L 20.765625 -21.125 L 13.796875 0.140625 Z M 10.671875 0.140625 "/></g></g></g><g fill="#55e6a5" fill-opacity="1"><g transform="translate(90.934208, 66.645635)"><g><path d="M 10.09375 0.125 L 2.515625 -25.3125 C 2.316406 -25.96875 2.101562 -26.445312 1.875 -26.75 C 1.65625 -27.050781 1.257812 -27.328125 0.6875 -27.578125 L 0.171875 -27.796875 L 0.171875 -28.21875 L 11.5 -28.21875 L 11.5 -27.796875 L 10.609375 -27.453125 C 9.953125 -27.203125 9.507812 -26.890625 9.28125 -26.515625 C 9.050781 -26.140625 9.035156 -25.625 9.234375 -24.96875 L 13.90625 -7.1875 L 18.9375 -22.109375 L 17.96875 -25.140625 C 17.757812 -25.742188 17.570312 -26.203125 17.40625 -26.515625 C 17.238281 -26.828125 16.953125 -27.082031 16.546875 -27.28125 L 15.609375 -27.796875 L 15.609375 -28.21875 L 26.34375 -28.21875 L 26.34375 -27.796875 L 25.015625 -27.28125 C 24.441406 -27.082031 24.117188 -26.789062 24.046875 -26.40625 C 23.984375 -26.019531 24.050781 -25.53125 24.25 -24.9375 L 29.671875 -6.75 L 34.8125 -24.59375 C 35.007812 -25.269531 35.078125 -25.863281 35.015625 -26.375 C 34.960938 -26.894531 34.609375 -27.269531 33.953125 -27.5 L 33.0625 -27.796875 L 33.0625 -28.21875 L 39 -28.21875 L 39 -27.796875 L 37.890625 -27.375 C 37.316406 -27.175781 36.914062 -26.859375 36.6875 -26.421875 C 36.457031 -25.992188 36.257812 -25.46875 36.09375 -24.84375 L 29 0.125 L 26.046875 0.125 L 19.625 -19.96875 L 13.046875 0.125 Z M 10.09375 0.125 "/></g></g></g></svg>